 <svg  version="1.0" xmlns="http://www.w3.org/2000/svg"  width="105.000000pt" height="69.000000pt" viewBox="0 0 105.000000 69.000000"  preserveAspectRatio="xMidYMid meet">  <g transform="translate(0.000000,69.000000) scale(0.100000,-0.100000)" fill="#048643" stroke="none"> <path d="M472 658 c-90 -13 -179 -72 -220 -147 -31 -54 -15 -53 20 2 15 24 38 52 50 63 21 17 21 17 -1 -9 -14 -15 -20 -27 -14 -27 5 0 18 9 29 21 53 59 160 85 255 63 35 -8 72 -16 81 -17 9 -1 16 -6 15 -12 -1 -5 6 -9 16 -8 10 0 16 -2 13 -5 -9 -8 25 -43 35 -36 8 4 42 -42 53 -71 2 -5 7 -7 11 -3 20 19 -81 130 -149 162 -47 22 -133 33 -194 24z"/> <path d="M320 325 c0 -94 3 -125 13 -125 9 0 11 19 9 73 -7 125 -1 132 37 50 19 -40 37 -73 41 -73 4 0 21 32 39 70 17 39 32 70 34 70 2 0 1 -43 -1 -95 -4 -83 -2 -95 12 -95 14 0 16 16 16 125 0 150 -10 159 -60 55 -19 -38 -37 -70 -40 -70 -3 0 -21 32 -40 70 -50 104 -60 95 -60 -55z"/> <path d="M600 420 c-71 -76 -29 -220 65 -220 73 0 119 48 119 125 0 75 -48 125 -119 125 -28 0 -44 -7 -65 -30z m125 -13 c56 -48 39 -163 -28 -186 -59 -21 -107 25 -107 106 0 85 76 131 135 80z"/> <path d="M230 215 c0 -36 121 -161 146 -151 8 3 13 2 10 -3 -12 -18 61 -36 144 -36 73 0 93 4 135 26 28 14 49 31 48 36 -1 6 10 21 25 34 l27 24 -24 -27 c-14 -16 -20 -28 -14 -28 5 0 19 10 30 23 31 33 75 107 64 107 -5 0 -20 -18 -32 -40 -12 -21 -26 -37 -30 -35 -12 8 -70 -46 -62 -57 3 -6 1 -8 -4 -5 -6 4 -31 -2 -54 -13 -89 -40 -220 -20 -297 46 -22 18 -45 34 -51 34 -6 0 -19 16 -28 35 -14 30 -33 47 -33 30z"/> </g> </svg> 